<?xml version="1.0" encoding="utf-8"?>
<!-- Generator: Adobe Illustrator 16.0.4, SVG Export Plug-In . SVG Version: 6.00 Build 0)  -->
<!DOCTYPE svg PUBLIC "-//W3C//DTD SVG 1.1//EN" "http://www.w3.org/Graphics/SVG/1.1/DTD/svg11.dtd">
<svg version="1.1" id="Layer_1" xmlns="http://www.w3.org/2000/svg" xmlns:xlink="http://www.w3.org/1999/xlink" x="0px" y="0px"
	 width="512px" height="512px" viewBox="0 0 512 512" enable-background="new 0 0 512 512" xml:space="preserve">
<g>
	<circle fill="none" cx="256" cy="256" r="130.385"/>
	<path fill="#0085C4" stroke="#58FFF3" stroke-width="3" stroke-miterlimit="10" d="M80.961,97.871l15.941,10.108l-28.869,45.53
		l18.478,11.716l26.495-41.786l14.734,9.342l-26.496,41.786l21.135,13.401l29.482-46.496l15.941,10.108l-41.504,65.457
		L40.07,162.362L80.961,97.871z"/>
	<path fill="#0085C4" stroke="#58FFF3" stroke-width="3" stroke-miterlimit="10" d="M186.567,144.85l-74.887-76.863l20.635-10.21
		l52.214,54.257l0.256-0.126l-11.2-74.551l20.763-10.273l14.904,106.542L186.567,144.85z"/>
	<path fill="#0085C4" stroke="#58FFF3" stroke-width="3" stroke-miterlimit="10" d="M309.172,26.178l-1.082,18.845l-53.822-3.09
		l-1.254,21.843l49.397,2.835l-1,17.417l-49.397-2.835l-1.434,24.984l54.965,3.155l-1.082,18.845l-77.379-4.442l5.852-101.934
		L309.172,26.178z"/>
	<path fill="#0085C4" stroke="#58FFF3" stroke-width="3" stroke-miterlimit="10" d="M397.01,69.986l-14.562,79.346l0.211,0.192
		l46.087-50.674l15.552,14.144L375.6,188.529l-16.608-15.106l14.571-79.144l-0.212-0.192l-45.991,50.568l-15.551-14.144
		l68.697-75.534L397.01,69.986z"/>
	<path fill="#0085C4" stroke="#58FFF3" stroke-width="3" stroke-miterlimit="10" d="M448.26,153.859l18.062-5.485l24.31,80.045
		l-18.062,5.485l-8.893-29.281l-79.635,24.186l-6.523-21.482l79.634-24.185L448.26,153.859z"/>
	<path fill="#0085C4" stroke="#58FFF3" stroke-width="3" stroke-miterlimit="10" d="M463.504,247.593
		c5.985,3.469,10.967,7.766,14.94,12.89c3.974,5.125,6.732,11.012,8.281,17.664c1.547,6.648,1.59,13.814,0.127,21.494
		c-1.48,7.773-4.158,14.443-8.033,20.016c-3.877,5.568-8.603,10.006-14.182,13.311c-5.578,3.305-11.791,5.471-18.633,6.496
		c-6.844,1.025-14.012,0.824-21.503-0.602c-7.305-1.393-13.903-3.812-19.797-7.266c-5.893-3.451-10.78-7.73-14.659-12.836
		c-3.881-5.105-6.574-10.957-8.084-17.553c-1.51-6.598-1.524-13.781-0.044-21.553c1.463-7.68,4.113-14.334,7.95-19.957
		c3.838-5.626,8.497-10.1,13.984-13.422c5.484-3.322,11.603-5.505,18.352-6.549c6.75-1.043,13.776-0.87,21.081,0.522
		C450.776,241.675,457.517,244.123,463.504,247.593z M426.513,261.436c-4.169,0.225-8.05,1.111-11.644,2.66
		c-3.595,1.547-6.683,3.869-9.261,6.969c-2.58,3.1-4.342,7.131-5.288,12.096c-0.945,4.963-0.788,9.359,0.472,13.191
		c1.259,3.828,3.276,7.123,6.051,9.887c2.772,2.758,6.056,5.01,9.85,6.752c3.792,1.742,7.797,3.014,12.011,3.816
		c4.4,0.838,8.755,1.158,13.064,0.959c4.307-0.197,8.282-1.066,11.923-2.605c3.642-1.539,6.752-3.859,9.332-6.957
		c2.578-3.1,4.343-7.131,5.288-12.094c0.945-4.965,0.787-9.361-0.472-13.191c-1.261-3.832-3.3-7.131-6.121-9.9
		c-2.82-2.77-6.198-5.037-10.131-6.805c-3.935-1.77-8.102-3.072-12.502-3.91C434.87,261.5,430.679,261.211,426.513,261.436z"/>
	<path fill="#0085C4" stroke="#58FFF3" stroke-width="3" stroke-miterlimit="10" d="M428.196,413.58l-77.666-21.812l-0.211,0.192
		l46.21,50.562l-15.517,14.182l-68.881-75.367l16.572-15.146l77.464,21.805l0.211-0.193l-46.113-50.456l15.517-14.182l68.881,75.367
		L428.196,413.58z"/>
	<path fill="#0085C4" stroke="#58FFF3" stroke-width="3" stroke-miterlimit="10" d="M313.615,481.548l-30.004-97.594l21.46-6.598
		l30.004,97.594L313.615,481.548z"/>
	<path fill="#0085C4" stroke="#58FFF3" stroke-width="3" stroke-miterlimit="10" d="M213.976,458.152
		c1.124,2.264,2.603,4.296,4.439,6.103c1.837,1.805,3.971,3.279,6.397,4.425c2.428,1.144,5.018,1.849,7.77,2.114
		c5.031,0.485,9.395-0.077,13.092-1.683c3.7-1.607,6.798-3.941,9.295-7.005c2.5-3.062,4.448-6.635,5.846-10.713
		c1.399-4.081,2.314-8.35,2.744-12.809c0.412-4.271,0.314-8.471-0.293-12.6c-0.607-4.13-1.845-7.913-3.718-11.349
		c-1.87-3.438-4.468-6.299-7.792-8.581c-3.322-2.285-7.499-3.669-12.529-4.154c-6.832-0.659-12.371,0.912-16.617,4.719
		c-4.246,3.804-7.125,9.081-8.639,15.831l-21.635-2.087c1.183-6.304,3.208-11.902,6.074-16.798
		c2.867-4.895,6.42-8.959,10.658-12.188c4.24-3.232,9.061-5.544,14.461-6.938c5.403-1.394,11.235-1.789,17.498-1.186
		c7.782,0.751,14.651,2.778,20.604,6.082c5.956,3.305,10.839,7.533,14.651,12.691c3.812,5.155,6.548,11.047,8.207,17.672
		c1.66,6.625,2.133,13.639,1.419,21.04c-0.732,7.591-2.551,14.526-5.455,20.808c-2.904,6.279-6.726,11.635-11.463,16.062
		c-4.736,4.428-10.345,7.716-16.827,9.87c-6.479,2.151-13.611,2.853-21.394,2.103c-5.598-0.54-10.811-1.858-15.637-3.951
		c-4.826-2.096-9.059-4.874-12.7-8.337c-3.639-3.464-6.522-7.597-8.645-12.398c-2.123-4.802-3.231-10.178-3.329-16.124l21.636,2.087
		C212.227,453.458,212.854,455.889,213.976,458.152z"/>
	<path fill="#0085C4" stroke="#58FFF3" stroke-width="3" stroke-miterlimit="10" d="M92.885,422.08l39.211-101.711l17.434,15.471
		l-9.315,22.132l28.558,25.343l21.081-11.691l16.899,14.996l-96.647,50.742L92.885,422.08z M133.495,374.378l-15.241,36.565
		l0.214,0.189l34.815-19.196L133.495,374.378z"/>
	<path fill="#0085C4" stroke="#58FFF3" stroke-width="3" stroke-miterlimit="10" d="M102.62,305.275l3.405,9.564l-39.672,19.889
		l-25.866,9.206l-7.097-19.938l25.867-9.207L102.62,305.275z M108.593,296.47l20.747-7.384l7.528,21.151l-20.747,7.384
		L108.593,296.47z"/>
	<path fill="#0085C4" stroke="#58FFF3" stroke-width="3" stroke-miterlimit="10" d="M95.7,271.681l1.272,10.072l-43.015,10.912
		l-27.24,3.441l-2.653-20.997l27.24-3.441L95.7,271.681z M103.424,264.362l21.848-2.76l2.814,22.273l-21.849,2.761L103.424,264.362z
		"/>
	<path fill="#0085C4" stroke="#58FFF3" stroke-width="3" stroke-miterlimit="10" d="M96.016,237.416l-0.883,10.115l-44.35,1.583
		l-27.352-2.388l1.841-21.083l27.352,2.388L96.016,237.416z M105.11,231.894l21.939,1.916l-1.953,22.366l-21.938-1.915
		L105.11,231.894z"/>
</g>
<g>
</g>
<g>
</g>
<g>
</g>
<g>
</g>
<g>
</g>
<g>
</g>
</svg>
